<svg xmlns="http://www.w3.org/2000/svg" xmlns:xlink="http://www.w3.org/1999/xlink" viewBox="0 0 12 12"><defs><style>.cls-1{isolation:isolate;}.cls-2{fill:none;}.cls-3{fill:#8c98a0;}.cls-4{fill:#4c4c4c;}.cls-5,.cls-7,.cls-8{mix-blend-mode:screen;}.cls-6{fill:url(#linear-gradient);}.cls-7{fill:url(#linear-gradient-2);}.cls-8{fill:url(#linear-gradient-3);}.cls-9{fill:url(#linear-gradient-4);}</style><linearGradient id="linear-gradient" x1="-0.49" y1="5.74" x2="3.63" y2="10.56" gradientTransform="matrix(-1, 0, 0, 1, 12, 0)" gradientUnits="userSpaceOnUse"><stop offset="0" stop-color="#fff"/><stop offset="1"/></linearGradient><linearGradient id="linear-gradient-2" x1="4.32" y1="-2.13" x2="8.78" y2="6.84" xlink:href="#linear-gradient"/><linearGradient id="linear-gradient-3" x1="5.39" y1="0.17" x2="8.1" y2="5.47" xlink:href="#linear-gradient"/><linearGradient id="linear-gradient-4" x1="1.85" y1="8.09" x2="2.68" y2="9.94" gradientTransform="matrix(-0.67, -0.74, -0.74, 0.67, 17.9, 4.6)" xlink:href="#linear-gradient"/></defs><g class="cls-1"><g id="Layer_1" data-name="Layer 1"><rect class="cls-2" width="12" height="12"/><g id="Icon_2_-_Search" data-name="Icon 2 - Search"><path class="cls-3" d="M.39,6A4.16,4.16,0,0,1,3,.67,4.33,4.33,0,0,1,4.33.44a4.16,4.16,0,0,1,1.36,8.1,4.22,4.22,0,0,1-1.36.23A4.17,4.17,0,0,1,.39,6ZM3,.89A3.93,3.93,0,0,0,4.33,8.53a4,4,0,0,0,1.28-.21,4,4,0,0,0,2.26-2A3.93,3.93,0,0,0,4.33.67,3.8,3.8,0,0,0,3,.89ZM1.53,5.57A2.94,2.94,0,0,1,3.36,1.81a2.91,2.91,0,0,1,1-.17,3,3,0,0,1,2.8,2A3,3,0,0,1,5.3,7.4,3,3,0,0,1,1.53,5.57ZM3.43,2A2.72,2.72,0,0,0,1.87,3.41a2.69,2.69,0,0,0-.12,2.08A2.73,2.73,0,0,0,5.22,7.18a2.72,2.72,0,0,0-.89-5.3A2.83,2.83,0,0,0,3.43,2Z"/><path class="cls-4" d="M10.37,11.64a.21.21,0,0,0,.18-.08l1.11-1.22a.23.23,0,0,0,.06-.18.25.25,0,0,0-.08-.17L8.55,7.18a.27.27,0,0,0-.17-.06.23.23,0,0,0-.18.08L7.09,8.42A.23.23,0,0,0,7,8.6a.21.21,0,0,0,.08.17l3.09,2.81A.27.27,0,0,0,10.37,11.64Z"/><path class="cls-3" d="M8.38,7.24a.14.14,0,0,1,.09,0l3.09,2.81a.12.12,0,0,1,0,.18l-1.1,1.23a.19.19,0,0,1-.1,0,.12.12,0,0,1-.09,0L7.19,8.69a.19.19,0,0,1-.05-.1.14.14,0,0,1,0-.09l1.1-1.22a.13.13,0,0,1,.1,0m0-.24a.36.36,0,0,0-.27.12L7,8.34a.37.37,0,0,0,0,.52l3.1,2.81a.34.34,0,0,0,.24.09.36.36,0,0,0,.27-.12l1.11-1.22a.38.38,0,0,0,0-.52L8.63,7.1A.35.35,0,0,0,8.38,7Z"/><path class="cls-4" d="M4.33.55A4.07,4.07,0,1,1,3,.78,4.14,4.14,0,0,1,4.33.55m0,1.21a2.68,2.68,0,0,0-.93.16h0A2.83,2.83,0,0,0,1.64,5.53,2.84,2.84,0,0,0,4.33,7.45a3,3,0,0,0,.93-.16A2.84,2.84,0,0,0,7,3.67,2.86,2.86,0,0,0,4.33,1.76Z"/><g class="cls-5"><path class="cls-6" d="M8.14,8.32a.36.36,0,0,0-.46,0l.71-.78,2.94,2.67-.51.57Z"/></g><path class="cls-7" d="M3.12,1.11A3.57,3.57,0,0,1,4.33.91a3.68,3.68,0,0,1,3,5.86A3.56,3.56,0,0,0,6.93,6,.31.31,0,0,0,7,5.89a2.89,2.89,0,0,0,.14-2.25A2.93,2.93,0,0,0,3.36,1.82,2.92,2.92,0,0,0,1.67,3.31a2.79,2.79,0,0,0-.14.37H1.3l-.58.09A3.71,3.71,0,0,1,3.12,1.11Z"/><path class="cls-8" d="M7.57,3.73a3.71,3.71,0,0,0-3.5-2.49,3.58,3.58,0,0,0-1.21.21A3.6,3.6,0,0,0,1.25,2.56,3.63,3.63,0,0,1,3.12,1.11,3.57,3.57,0,0,1,4.33.91,3.69,3.69,0,0,1,7.15,7,3.69,3.69,0,0,0,7.57,3.73Z"/><g class="cls-5"><rect class="cls-9" x="9.61" y="6.97" width="0.29" height="3.98" transform="translate(-3.43 10.17) rotate(-47.79)"/></g></g></g></g></svg>