<svg id="Layer_1" data-name="Layer 1" xmlns="http://www.w3.org/2000/svg" viewBox="0 0 11.9 9.1"><defs><style>.cls-1{fill:none;stroke:#4c4c4c;stroke-linecap:round;stroke-linejoin:round;}.cls-2{fill:#4c4c4c;}.cls-3{font-size:2.72px;fill:#fff;font-family:ErasITC-Bold, Eras Bold ITC;font-weight:700;}</style></defs><ellipse class="cls-1" cx="5.95" cy="7.81" rx="0.76" ry="0.8"/><ellipse class="cls-1" cx="9.44" cy="7.73" rx="0.76" ry="0.8"/><line class="cls-1" x1="6.91" y1="7.81" x2="8.6" y2="7.81"/><path class="cls-2" d="M.05,4.22c0-.21.35-.53.48-.64a2.11,2.11,0,0,1,.87-.47,1.91,1.91,0,0,1,1.22.14,3.22,3.22,0,0,1,.75.46c.15.12.67.78.8.78H12l-.72,1.94H4.81L5,7h6L10.43,9H5.12l-.28-.8,5.29.06.15-.59-5.57,0L4,5.77l6.8,0L11,5.16l-7.11,0A2.39,2.39,0,0,0,1.59,3.66a2.9,2.9,0,0,0-1.1.67.33.33,0,0,1-.25.08C.09,4.38.05,4.31.05,4.22Z" transform="translate(-0.05 -2.73)"/><path class="cls-2" d="M3.4,2.8a1,1,0,0,0-.57,0A2.27,2.27,0,0,0,2,3,.07.07,0,0,1,2,3a.38.38,0,0,0-.13-.09.42.42,0,0,0-.49.15L.51,4a.84.84,0,0,0-.21.58c0,1.08,0,2.16,0,3.24v.09a.49.49,0,0,0,.15.33.48.48,0,0,0,.22.12h2a.75.75,0,0,0,.2-.1A.52.52,0,0,0,3,7.83C3,6.91,3,6,3,5.07a3.23,3.23,0,0,0,0-.82l.22-.17a1.53,1.53,0,0,0,.44-.56A.53.53,0,0,0,3.4,2.8Zm-.06.53a.9.9,0,0,1-.17.26,2.27,2.27,0,0,1-1.1.63H2a.47.47,0,0,1-.08.29.31.31,0,0,1-.4.11.4.4,0,0,1-.2-.44.38.38,0,0,1,.29-.33.31.31,0,0,1,.3.13s0,0,.06,0a2.18,2.18,0,0,0,.62-.25c-.1-.14-.21-.27-.32-.41l.22-.09A1.94,1.94,0,0,1,3,3.14a.54.54,0,0,1,.28,0C3.36,3.23,3.37,3.26,3.34,3.33Z" transform="translate(-0.05 -2.73)"/><text class="cls-3" transform="translate(0.34 4.42)">%</text></svg>