<svg id="Layer_1" data-name="Layer 1" xmlns="http://www.w3.org/2000/svg" xmlns:xlink="http://www.w3.org/1999/xlink" viewBox="0 0 24 24"><defs><style>.cls-1{fill:none;}.cls-2{fill:url(#Green);}.cls-3{fill:url(#Green-2);}.cls-4{fill:url(#Green-3);}.cls-5{fill:url(#Green-4);}.cls-6,.cls-7{fill:#fff;}.cls-7{font-size:2px;font-family:Stencil;}</style><linearGradient id="Green" x1="0.57" y1="5.08" x2="17.73" y2="5.08" gradientUnits="userSpaceOnUse"><stop offset="0" stop-color="#64c08a"/><stop offset="0.5" stop-color="#00a550"/><stop offset="1" stop-color="#00914c"/></linearGradient><linearGradient id="Green-2" x1="1.87" y1="13.66" x2="23.43" y2="13.66" xlink:href="#Green"/><linearGradient id="Green-3" x1="12.32" y1="22.12" x2="15.3" y2="22.12" xlink:href="#Green"/><linearGradient id="Green-4" x1="2.03" y1="22.12" x2="5.01" y2="22.12" xlink:href="#Green"/></defs><rect class="cls-1" width="24" height="24"/><path class="cls-2" d="M17.61,8c-.29.56-.6,1.12-.9,1.68a.16.16,0,0,1-.17.11H2.66a.41.41,0,0,1-.19,0c-.49-.26-1-.52-1.47-.8a1.1,1.1,0,0,1-.3-.27,1.69,1.69,0,0,1-.13-.31V8.09c.4-.76.79-1.53,1.2-2.29C2.63,4.17,3.52,2.55,4.39.93A.94.94,0,0,1,5,.4h.21l.68.31.12.07L17.27,6.83A.79.79,0,0,1,17.61,8Z"/><path class="cls-3" d="M8.59,20.83H2.27A.36.36,0,0,1,2,20.52a.34.34,0,0,1,.25-.38.75.75,0,0,1,.21,0h12.4a.66.66,0,0,0,.65-.47.79.79,0,0,0-.07-.52,3.42,3.42,0,0,0-.86-1.07.31.31,0,0,0-.24-.1c-3.21,0-6.43,0-9.64,0a.38.38,0,0,1-.43-.3q-.84-2.52-1.7-5l-.64-1.89a.35.35,0,0,1,.24-.48.61.61,0,0,1,.19,0H17.8a.21.21,0,0,0,.22-.13c.55-1.12,1.11-2.23,1.67-3.35a.43.43,0,0,1,.42-.26h2.94a.36.36,0,1,1,0,.71h-2.6a.26.26,0,0,0-.27.16q-2.52,5-5.05,10.08c0,.09,0,.13,0,.2a3.64,3.64,0,0,1,.92,1.27,1.32,1.32,0,0,1-.65,1.76,1.9,1.9,0,0,1-.78.15ZM9,11H7.29v1.13H9ZM5,11v1.13h1.6V11Zm2.33,6.28H9v-1H7.29Zm0-3.45H9v-1H7.29Zm0,1.7H9v-1H7.29Zm8.38-3.4V11H14.15v1.13ZM5,16.21v1H6.56v-1ZM13.42,11H11.94v1.13h1.48Zm-2.2,0H9.75v1.13h1.47ZM5,15.49H6.56v-1H5Zm1.61-1.7v-1H5v1Zm5.38,2.42v1h1.48v-1Zm-2.19,1h1.46v-1H9.75ZM3,11.69c0,.13.06.31.15.38s.27,0,.41,0h.71V11H2.72Zm11.19,2.1h1.52v-1H14.15Zm-.73-1H11.94v1h1.48Zm-1.49,2.68h1.49v-1H11.93Zm-2.18-1.7h1.46v-1H9.75Zm0,1.64s0,.06.05.06h1.4l0,0v-1H9.74C9.74,14.82,9.74,15.13,9.75,15.43Zm5.51.06a.1.1,0,0,0,.08-.06c.11-.21.22-.41.31-.63a1.19,1.19,0,0,0,0-.29H14.15v1Zm1.13-3.39H17a.07.07,0,0,0,.06,0c.18-.36.36-.72.54-1.1H16.39Zm-13,.71c0,.12.08.22.11.32s.13.39.19.58a.1.1,0,0,0,.12.09c.15,0,.31,0,.47,0v-1Zm10.81,3.4v1a.66.66,0,0,0,.2,0,.17.17,0,0,0,.12-.06c.16-.31.31-.62.46-.93,0,0,0,0,0,0ZM3.92,14.51l.29.86h0v-.86Zm12.54-1.7s-.07,0-.07.07a1.88,1.88,0,0,0,0,.41l.25-.49Z"/><circle class="cls-4" cx="13.81" cy="22.12" r="1.49"/><circle class="cls-5" cx="3.52" cy="22.12" r="1.49"/><circle class="cls-6" cx="14.54" cy="7.83" r="1.49"/><polygon class="cls-6" points="3.06 3.39 13.64 9.75 11.76 9.75 2.62 4.21 3.06 3.39"/><text class="cls-7" transform="matrix(1.08, 0.65, -0.51, 0.86, 4.23, 2.92)">1234</text><polygon class="cls-6" points="2.03 5.3 9.29 9.75 7.96 9.75 1.67 5.99 2.03 5.3"/></svg>