<svg id="Layer_1" data-name="Layer 1" xmlns="http://www.w3.org/2000/svg" viewBox="0 0 12 12"><defs><style>.cls-1{fill:none;}.cls-2{fill:#4c4c4c;}.cls-3{fill:#ddc4a7;}.cls-4{fill:#e8d7c5;}.cls-5{fill:#847f7f;}</style></defs><rect class="cls-1" width="12" height="12"/><g id="Icon_2_-_Search" data-name="Icon 2 - Search"><path class="cls-2" d="M8.73,7.22l-.59.64L6.08,10.13,6,10.21H5.75l-.09-.1L4.46,8.78,3,7.22l.77-.77L4.29,6,5.2,9.31s0,0,0,0a.8.8,0,0,1,.13-.22l0,0a.65.65,0,0,1,.95,0v0a.77.77,0,0,1,.16.25L7.45,6V6h0L8.55,7Z"/><path class="cls-2" d="M10.78,11.88s0,0,0,0H1.24l0,0V10h0l.21-2a.8.8,0,0,1,.05-.21A1.09,1.09,0,0,1,2.16,7L4.29,6l-.49.47L3,7.22,4.46,8.78l1.2,1.33.09.1H6l.07-.08L8.14,7.86l.59-.64L8.55,7,7.49,6l1.38.64L9.54,7l.05,0,.16.08a1,1,0,0,1,.5,1.06l.44,3.11h0Z"/><polygon class="cls-2" points="4.46 8.79 3.03 7.22 3.8 6.45 4.46 8.79"/><polygon class="cls-2" points="6.08 10.13 6 10.21 5.75 10.21 5.75 10.21 5.67 10.11 5.72 10.12 5.72 10.12 6.03 10.13 6.03 10.13 6.08 10.13"/><path class="cls-3" d="M4.41,1.27l2.79.15.34,2s.08-.7.28-.51c0,0,.11.7-.31.94l0,.82S6.11,6.1,5.8,6A9.68,9.68,0,0,1,4.14,4.59a4.84,4.84,0,0,1,0-.77s-.72-.62-.23-1l.07-.13Z"/><path class="cls-2" d="M4.06,1.11A1.62,1.62,0,0,1,5.7.1,6.57,6.57,0,0,1,7.86.48L7.12.6A1.71,1.71,0,0,1,8.33,1.68.34.34,0,0,0,8,1.44a1.16,1.16,0,0,1,.11,1.11S8,2.16,7.86,2.07,7.49,3.6,7.51,3.48A6,6,0,0,0,7.14,2,3,3,0,0,1,7,1.51a3.42,3.42,0,0,1-1.53.39l-.9-.34a3,3,0,0,1-.5,1.14v.86l-.23-.85S3.51,1.27,4.06,1.11Z"/><path class="cls-4" d="M4.41,1.27,3.93,2.71l-.07.13c-.49.36.23,1,.23,1a4.84,4.84,0,0,0,0,.77A9.68,9.68,0,0,0,5.8,6V1.34Z"/><path class="cls-5" d="M5.8.1H5.7a1.62,1.62,0,0,0-1.64,1c-.55.16-.23,1.6-.23,1.6l.23.85V2.7a3,3,0,0,0,.5-1.14l.9.34a1.29,1.29,0,0,0,.34,0Z"/><path class="cls-5" d="M5.75,10.21h0l-.09-.1L4.46,8.78,3,7.22l.77-.77L4.29,6c.33.78.64,1.63.93,2.53l.18.55c.11.35.22.7.32,1.06Z"/><path class="cls-5" d="M8.73,7.22l-.59.64L6.08,10.13,6,10.21l0-.08c.1-.35.21-.7.32-1l.16-.49c.29-.88.6-1.74.94-2.56a.08.08,0,0,1,0,0h0l0,0L8.55,7Z"/><polygon class="cls-2" points="6.52 8.62 6.36 9.11 6.03 10.13 6 10.21 5.75 10.21 5.75 10.21 5.72 10.12 5.37 9.09 5.2 8.59 5.22 8.51 5.6 7.23 5.2 6.87 5.79 6.33 6.38 6.87 6 7.22 6.51 8.6 6.52 8.62"/><circle class="cls-5" cx="5.92" cy="11.11" r="0.28"/></g></svg>